HIERARCHY
ROOT Hips
{
	OFFSET 0.000000 0.000000 0.000000
	CHANNELS 6 Xposition Yposition Zposition Xrotation Zrotation Yrotation
	JOINT Spine
	{
		OFFSET 0.000000 0.000000 4.452840
		CHANNELS 3 Xrotation Zrotation Yrotation
		JOINT Spine1
		{
			OFFSET 0.000000 -0.773230 4.385190
			CHANNELS 3 Xrotation Zrotation Yrotation
			JOINT Spine2
			{
				OFFSET 0.000000 -0.388090 4.435890
				CHANNELS 3 Xrotation Zrotation Yrotation
				JOINT Spine3
				{
					OFFSET 0.000000 -0.000000 4.452840
					CHANNELS 3 Xrotation Zrotation Yrotation
					JOINT Neck
					{
						OFFSET -0.000000 0.572510 5.725080
						CHANNELS 3 Xrotation Zrotation Yrotation
						JOINT Neck1
						{
							OFFSET -0.000000 0.143690 1.642400
							CHANNELS 3 Xrotation Zrotation Yrotation
							JOINT Head
							{
								OFFSET -0.000000 0.286290 1.623630
								CHANNELS 3 Xrotation Zrotation Yrotation
								End Site
								{
									OFFSET 0.000000 -0.000000 3.549160
								}
							}
						}
					}
					JOINT RightShoulder
					{
						OFFSET 0.000000 -0.000000 4.007550
						CHANNELS 3 Yrotation Zrotation Xrotation
						JOINT RightArm
						{
							OFFSET 7.258120 0.000000 0.000000
							CHANNELS 3 Xrotation Zrotation Yrotation
							JOINT RightForeArm
							{
								OFFSET 11.281260 0.000000 0.000000
								CHANNELS 3 Zrotation Yrotation Xrotation
								JOINT RightHand
								{
									OFFSET 8.656280 0.000000 0.000000
									CHANNELS 3 Xrotation Zrotation Yrotation
									End Site
									{
										OFFSET 4.378610 -0.042100 0.000000
									}
								}
							}
						}
					}
					JOINT LeftShoulder
					{
						OFFSET 0.000000 -0.000000 4.007550
						CHANNELS 3 Yrotation Zrotation Xrotation
						JOINT LeftArm
						{
							OFFSET -7.258120 -0.000000 0.000000
							CHANNELS 3 Xrotation Zrotation Yrotation
							JOINT LeftForeArm
							{
								OFFSET -11.281260 -0.000000 0.000000
								CHANNELS 3 Zrotation Yrotation Xrotation
								JOINT LeftHand
								{
									OFFSET -8.656280 -0.000000 0.000000
									CHANNELS 3 Xrotation Zrotation Yrotation
									End Site
									{
										OFFSET -4.378610 -0.042100 0.000000
									}
								}
							}
						}
					}
				}
			}
		}
	}
	JOINT RightUpLeg
	{
		OFFSET 3.944550 0.000000 0.000000
		CHANNELS 3 Xrotation Zrotation Yrotation
		JOINT RightLeg
		{
			OFFSET 0.000000 0.000000 -16.597900
			CHANNELS 3 Xrotation Yrotation Zrotation
			JOINT RightFoot
			{
				OFFSET 0.000000 0.000000 -15.905310
				CHANNELS 3 Xrotation Zrotation Yrotation
				JOINT RightToeBase
				{
					OFFSET -0.000000 4.840540 -1.235990
					CHANNELS 3 Xrotation Yrotation Zrotation
					End Site
					{
						OFFSET -0.000000 3.526400 0.000000
					}
				}
			}
		}
	}
	JOINT LeftUpLeg
	{
		OFFSET -3.944550 -0.000000 0.000000
		CHANNELS 3 Xrotation Zrotation Yrotation
		JOINT LeftLeg
		{
			OFFSET 0.000000 0.000000 -16.597900
			CHANNELS 3 Xrotation Yrotation Zrotation
			JOINT LeftFoot
			{
				OFFSET 0.000000 0.000000 -15.905310
				CHANNELS 3 Xrotation Zrotation Yrotation
				JOINT LeftToeBase
				{
					OFFSET -0.000000 4.840540 -1.235990
					CHANNELS 3 Xrotation Yrotation Zrotation
					End Site
					{
						OFFSET -0.000000 3.438820 0.000000
					}
				}
			}
		}
	}
}
MOTION
Frames: 12
Frame Time: 0.033333
6.270200 -10.533200 36.537100 -3.026900 -5.361700 3.091600 -2.078800 0.086500 0.452500 -2.078900 0.046700 0.458300 -2.422400 0.003400 0.245300 -2.422400 0.003400 0.245300 28.553200 -1.993700 -0.054400 10.346600 -1.951600 -0.127800 -14.696300 -1.888700 0.322400 4.290900 -0.661700 0.049600 -6.103800 5.982100 76.444400 25.852000 0.000000 31.064900 -0.484600 -7.769200 3.580500 -4.196800 -12.140400 -0.884100 -8.504200 -26.446100 -77.076500 -14.799500 -0.000000 18.634500 -0.618900 15.690500 -2.287300 5.448300 -10.888700 -8.593700 -0.600700 0.000000 0.000000 -8.643300 2.836800 18.690900 -1.222400 0.000000 0.000000 6.767900 21.520400 8.549300 -10.442700 0.000000 0.000000 -2.730900 8.337800 -12.722400 -4.941100 0.000000 0.000000
6.416700 -10.632300 36.557700 -3.082600 -3.897100 3.384400 -2.020600 0.330900 0.532200 -2.020800 0.283200 0.559000 -2.633800 0.232600 0.408900 -2.633800 0.232600 0.408900 27.576700 -1.581400 -0.324900 9.851400 -1.551900 -0.449500 -14.527100 -1.645700 -0.154700 4.576000 0.130000 -0.010400 -4.773200 8.111700 77.321700 20.609600 -0.000000 28.097300 -0.381300 -10.052400 2.183400 -4.375000 -11.675400 -0.887000 -8.816200 -26.846700 -74.295200 -16.596200 -0.000000 11.980000 -2.462800 14.580500 -9.695400 5.688700 -12.743900 -8.791100 -0.687200 0.000000 0.000000 -8.334600 3.193600 18.554600 -1.160300 0.000000 0.000000 6.385500 22.209500 8.758200 -9.674300 0.000000 0.000000 -2.262000 10.353500 -12.303800 -4.987600 0.000000 0.000000
6.542000 -10.699900 36.551700 -2.680200 -1.574200 3.325000 -2.055100 0.329500 0.687100 -2.055400 0.268400 0.713200 -2.800000 0.207300 0.624300 -2.800000 0.207300 0.624300 26.099700 -0.851200 -0.222500 9.025700 -0.789100 -0.483200 -14.451800 -0.966100 -0.595600 4.307000 0.446700 -0.033600 -5.407100 7.115200 78.879900 20.340500 0.000000 29.557700 -0.753500 -9.457700 4.575900 -4.599500 -11.276600 -0.901300 -9.585300 -31.076300 -68.697400 -18.895600 0.000000 -2.251000 -3.469400 11.292800 -17.202400 5.574000 -14.686100 -8.872900 -1.534900 0.000000 0.000000 -7.390100 2.840500 18.728400 -0.977700 0.000000 0.000000 6.194000 23.764400 9.563800 -9.750700 0.000000 0.000000 -2.967400 11.341800 -12.098900 -4.994100 0.000000 0.000000
6.649400 -10.733700 36.537300 -2.077300 2.384000 2.979000 -1.962300 -0.123900 0.818600 -1.962700 -0.194800 0.804700 -3.091300 -0.251100 0.982400 -3.091300 -0.251100 0.982400 25.070500 -0.034400 0.014400 8.193400 0.056500 -0.342600 -15.011500 -0.139800 -0.842500 4.182100 -0.333200 0.024400 -6.252900 3.616600 79.979800 20.633000 -0.000000 32.830800 -0.975000 -7.872200 7.083300 -4.504800 -12.010100 -0.939200 -10.903200 -34.072500 -62.170000 -21.424000 -0.000000 -7.012300 -2.964400 9.428000 -17.543400 4.733000 -16.452400 -8.612400 -2.256400 0.000000 0.000000 -6.655400 0.640200 18.496800 -1.067500 0.000000 0.000000 6.883100 25.457400 11.130800 -10.949300 0.000000 0.000000 -3.956300 10.572600 -12.036600 -4.969300 0.000000 0.000000
6.694200 -10.739300 36.530000 -1.323000 7.041200 2.769400 -1.861300 -0.785000 0.701800 -1.861100 -0.843200 0.630700 -3.467000 -0.859000 1.492500 -3.467000 -0.859000 1.492500 24.638000 0.614400 0.434400 7.619400 0.810400 -0.277000 -15.780900 0.518000 -1.501100 4.205600 -1.552500 0.114200 -7.515400 0.391100 79.922500 21.040400 -0.000000 33.141400 -1.132600 -7.645300 8.452400 -4.081700 -13.277100 -0.938900 -10.648800 -33.886100 -56.820100 -23.326200 0.000000 -1.572400 -1.832000 8.746900 -11.878200 3.217200 -17.010600 -8.284700 -2.611100 0.000000 0.000000 -6.143100 -3.496700 18.202300 -1.357000 0.000000 0.000000 7.497400 26.280600 12.665900 -12.381900 0.000000 0.000000 -3.709300 9.790800 -12.006300 -5.336200 0.000000 0.000000
6.667400 -10.794900 36.506800 -0.775900 11.291900 2.653300 -1.814400 -1.282700 0.523000 -1.813200 -1.323400 0.409200 -3.766000 -1.299000 1.829600 -3.766000 -1.299000 1.829600 24.539700 1.075900 0.483800 7.476200 1.268500 -0.223500 -15.988300 0.966600 -1.574700 4.440200 -2.507700 0.194700 -9.244900 -2.869300 79.515600 21.693700 0.000000 32.934600 -1.142200 -7.495600 8.689800 -3.336000 -14.344700 -0.827400 -8.799400 -32.257800 -52.407300 -25.276300 -0.000000 5.890200 -0.573200 5.732700 -5.719200 2.304600 -17.374800 -8.149000 -3.414800 0.000000 0.000000 -5.448700 -7.294500 18.248800 -1.520200 0.000000 0.000000 7.799800 26.282600 13.876000 -12.905200 0.000000 0.000000 -3.673300 9.053900 -11.232900 -5.244100 0.000000 0.000000
6.571700 -10.895200 36.454500 -0.538900 15.057000 2.431600 -1.770900 -1.583900 0.446600 -1.769000 -1.616800 0.306800 -3.842400 -1.575500 1.940200 -3.842400 -1.575500 1.940200 24.679200 1.466200 0.150900 7.458300 1.544900 -0.194000 -16.224600 1.308000 -1.106000 4.702500 -3.207200 0.263700 -11.139300 -6.443700 79.212900 22.124700 -0.000000 34.853500 -1.066300 -7.159100 8.494600 -1.764200 -15.447700 -0.470100 -7.672700 -32.541300 -48.403000 -25.415400 -0.000000 5.580900 -0.022900 3.470600 -0.378400 2.223400 -18.162400 -8.201700 -4.861700 0.000000 0.000000 -4.414600 -10.048700 18.641700 -1.489600 0.000000 0.000000 7.732300 25.234200 14.801800 -11.843800 0.000000 0.000000 -4.019400 7.755100 -11.365600 -5.164400 0.000000 0.000000
6.416200 -11.021900 36.379300 -0.569200 18.106200 1.940800 -1.745500 -1.933200 0.424900 -1.742700 -1.962900 0.254800 -3.573600 -1.911900 2.168300 -3.573600 -1.911900 2.168300 24.711200 2.147400 -0.605200 7.217300 1.992000 -0.227900 -16.845700 1.863700 -0.228000 4.731700 -3.295700 0.272600 -12.687800 -10.358000 78.543400 22.595100 0.000000 35.820100 -0.905200 -6.591300 7.837600 0.379800 -16.683300 0.109000 -6.670600 -33.058800 -47.238200 -19.391300 0.000000 -0.418800 0.127200 5.026500 1.450900 2.573200 -18.487200 -8.161000 -6.510100 0.000000 0.000000 -3.608100 -12.464300 19.095300 -1.401800 0.000000 0.000000 7.484100 23.750500 15.724100 -9.469800 0.000000 0.000000 -4.550200 6.703800 -11.884500 -4.914700 0.000000 0.000000
6.193100 -11.126000 36.305800 -0.703600 19.529700 1.299600 -1.821200 -2.436200 0.372400 -1.816700 -2.459400 0.158500 -3.353400 -2.393200 2.413100 -3.353400 -2.393200 2.413100 26.077100 2.826400 -0.604800 7.444800 2.585700 0.034900 -18.190400 2.579600 0.226500 4.835500 -3.598800 0.304200 -12.204200 -14.105400 76.607100 23.756600 -0.000000 35.659700 -0.757200 -6.061600 7.134000 1.320400 -17.737400 0.402300 -10.095600 -31.932100 -45.966300 -12.220400 0.000000 -4.602100 0.102700 9.023400 0.655000 2.687600 -16.954900 -7.867800 -7.526300 0.000000 0.000000 -3.348800 -15.227800 19.524400 -1.485800 0.000000 0.000000 6.876500 22.870200 16.675900 -6.582100 0.000000 0.000000 -4.728900 7.000400 -11.859600 -4.960100 0.000000 0.000000
5.866000 -11.208200 36.221300 -1.113600 18.439000 0.595000 -1.837200 -2.882500 0.355200 -1.830900 -2.902500 0.102400 -3.488400 -2.827400 2.351900 -3.488400 -2.827400 2.351900 28.049900 3.110700 0.648200 8.625800 3.103400 0.702500 -18.107500 3.186000 -0.153400 5.185700 -5.368700 0.486500 -9.598600 -15.867700 72.640000 28.320300 -0.000000 32.354800 -0.960000 -6.542600 8.365900 1.380700 -17.586800 0.417200 -22.700700 -31.103500 -43.459600 -11.825300 0.000000 -6.535600 0.042600 9.623500 0.254700 3.116600 -14.754900 -7.730400 -7.823600 0.000000 0.000000 -3.400300 -16.281900 19.871700 -1.650000 0.000000 0.000000 5.658300 22.922300 17.321900 -3.506500 0.000000 0.000000 -4.928300 8.548700 -11.250300 -4.904200 0.000000 0.000000
5.430700 -11.256300 36.117300 -1.722400 15.371400 -0.339400 -1.617800 -2.933800 0.391700 -1.611300 -2.956800 0.134300 -3.730200 -2.885500 2.187300 -3.730200 -2.885500 2.187300 29.674700 2.995000 1.935800 9.657500 3.197200 1.634400 -17.900800 3.563200 0.136700 5.154400 -7.328100 0.659200 -10.761300 -11.808300 66.033300 40.131600 0.000000 28.262600 -1.548200 -7.086200 12.357900 1.184700 -16.408800 0.334700 -36.720600 -32.322400 -44.510500 -12.486400 0.000000 -4.176800 -0.596000 9.536100 -3.592800 3.818400 -13.313000 -7.642200 -7.330800 0.000000 0.000000 -3.921200 -14.621300 20.340600 -1.591800 0.000000 0.000000 4.003900 22.629100 17.742400 -1.368500 0.000000 0.000000 -5.121500 9.934500 -11.152100 -4.963000 0.000000 0.000000
4.834800 -11.255500 35.997400 -1.804600 11.970200 -1.136400 -1.339500 -2.683100 0.541600 -1.334000 -2.720100 0.305600 -4.137400 -2.674800 1.761600 -4.137400 -2.674800 1.761600 30.588900 2.987100 3.014000 9.957500 3.336700 2.571300 -18.454100 4.042700 0.718800 3.427100 -8.997200 0.536600 -16.475500 -5.506600 56.674400 55.620300 -0.000000 29.346600 -2.155500 -7.344800 16.405400 1.043000 -14.078900 0.253800 -44.670000 -32.454800 -50.451000 -13.242600 0.000000 -3.052900 -1.576200 9.728400 -9.249300 3.862600 -12.281900 -7.758400 -6.222700 0.000000 0.000000 -4.921300 -12.190900 21.006500 -1.539900 0.000000 0.000000 2.487000 21.890700 17.807700 -1.691200 0.000000 0.000000 -5.513300 8.904900 -12.020800 -5.030100 0.000000 0.000000
